<svg width="33" height="34" viewBox="0 0 33 34" fill="none" xmlns="http://www.w3.org/2000/svg">
<path d="M15.9716 1.07484C13.168 1.14357 10.4912 2.25722 8.4662 4.19739C6.44118 6.13757 5.21405 8.76429 5.02547 11.5624C4.83689 14.3605 5.70047 17.1281 7.44684 19.3225C9.19321 21.5168 11.6964 22.9796 14.4654 23.4239V26.4937H13.3883C12.9164 26.4937 12.4639 26.6812 12.1303 27.0148C11.7966 27.3485 11.6092 27.801 11.6092 28.2728C11.6092 28.7447 11.7966 29.1972 12.1303 29.5308C12.4639 29.8645 12.9164 30.0519 13.3883 30.0519H14.4654V31.2924C14.4654 31.7643 14.6529 32.2168 14.9865 32.5504C15.3201 32.8841 15.7727 33.0715 16.2445 33.0715C16.7164 33.0715 17.1689 32.8841 17.5025 32.5504C17.8362 32.2168 18.0236 31.7643 18.0236 31.2924V30.0519H19.1007C19.5726 30.0519 20.0251 29.8645 20.3588 29.5308C20.6924 29.1972 20.8798 28.7447 20.8798 28.2728C20.8798 27.801 20.6924 27.3485 20.3588 27.0148C20.0251 26.6812 19.5726 26.4937 19.1007 26.4937H18.0236V23.4239C20.6612 22.9944 23.0607 21.6425 24.7946 19.609C26.5286 17.5756 27.4844 14.9926 27.4917 12.3203C27.4919 10.8202 27.192 9.33519 26.6097 7.95272C26.0274 6.57026 25.1744 5.31826 24.101 4.2704C23.0275 3.22255 21.7553 2.40001 20.3592 1.85121C18.9631 1.30242 17.4713 1.03845 15.9716 1.07484ZM24.0897 12.3203C24.0894 13.8718 23.629 15.3885 22.7667 16.6784C21.9044 17.9683 20.6791 18.9735 19.2455 19.567C17.8119 20.1605 16.2346 20.3157 14.7129 20.0127C13.1912 19.7098 11.7935 18.9625 10.6965 17.8653C9.59946 16.768 8.85246 15.3701 8.54989 13.8483C8.24733 12.3266 8.40279 10.7493 8.99663 9.31583C9.59047 7.8824 10.596 6.65725 11.8861 5.79528C13.1762 4.93332 14.6929 4.47325 16.2445 4.47325C18.3249 4.47515 20.3196 5.30256 21.7905 6.7738C23.2614 8.24504 24.0883 10.2399 24.0897 12.3203Z" fill="#D82316"/>
</svg>
