<svg width="26" height="26" viewBox="0 0 26 26" fill="none" xmlns="http://www.w3.org/2000/svg">
<path d="M20.9885 25H5.0115C2.8037 25 1 23.1963 1 20.9885V5.0115C1 2.8037 2.8037 1 5.0115 1H20.9885C23.1963 1 25 2.8037 25 5.0115V20.9885C25 23.2062 23.2062 25 20.9885 25Z" stroke="white" stroke-width="1.5"/>
<path d="M8.6494 17.3614C9.81244 18.5244 11.3599 19.1651 13.0059 19.1651C14.6519 19.1651 16.1894 18.5244 17.3623 17.3614C18.5254 16.1983 19.166 14.6509 19.166 13.0049C19.166 11.3589 18.5254 9.81146 17.3623 8.64842C16.1993 7.48538 14.6519 6.84473 13.0059 6.84473C11.3599 6.84473 9.81244 7.48538 8.6494 8.64842C7.48636 9.81146 6.8457 11.3589 6.8457 13.0049C6.8457 14.6509 7.48636 16.1983 8.6494 17.3614Z" stroke="white" stroke-width="1.5"/>
<path d="M20.3654 6.64242C21.0186 6.64242 21.5482 6.11287 21.5482 5.45964C21.5482 4.8064 21.0186 4.27686 20.3654 4.27686C19.7122 4.27686 19.1826 4.8064 19.1826 5.45964C19.1826 6.11287 19.7122 6.64242 20.3654 6.64242Z" stroke="white" stroke-width="1.5"/>
</svg>
