<svg width="26" height="26" viewBox="0 0 26 26" fill="none" xmlns="http://www.w3.org/2000/svg">
<path d="M6.41923 8.89209H1.4043V24.8844H6.41923V8.89209Z" stroke="white" stroke-width="1.5"/>
<path d="M19.9855 8.5456C19.8007 8.52249 19.6042 8.51093 19.4078 8.49938C16.5999 8.38383 15.0168 10.0478 14.4622 10.7642C14.312 10.9606 14.2426 11.0762 14.2426 11.0762V8.93847H9.44727V24.9308H14.2426H14.4622C14.4622 23.3015 14.4622 21.6838 14.4622 20.0545C14.4622 19.1763 14.4622 18.2981 14.4622 17.4199C14.4622 16.3338 14.3813 15.1782 14.9244 14.1845C15.3866 13.3525 16.2186 12.9365 17.1545 12.9365C19.9278 12.9365 19.9855 15.444 19.9855 15.6751C19.9855 15.6867 19.9855 15.6982 19.9855 15.6982V25.0001H25.0005V14.5658C25.0005 10.9953 23.1863 8.89225 19.9855 8.5456Z" stroke="white" stroke-width="1.5"/>
<path d="M3.91189 6.82379C5.52008 6.82379 6.82379 5.52009 6.82379 3.91189C6.82379 2.3037 5.52008 1 3.91189 1C2.30369 1 1 2.3037 1 3.91189C1 5.52009 2.30369 6.82379 3.91189 6.82379Z" stroke="white" stroke-width="1.5"/>
</svg>
