<svg width="32" height="33" viewBox="0 0 32 33" fill="none" xmlns="http://www.w3.org/2000/svg">
<path d="M31.395 1.18184C31.2021 0.987641 30.9726 0.833688 30.7198 0.728922C30.467 0.624155 30.1959 0.570661 29.9222 0.571544H22.5627C22.2872 0.571822 22.0145 0.62636 21.7601 0.732045C21.5056 0.83773 21.2745 0.992491 21.0799 1.18749C20.8853 1.3825 20.731 1.61392 20.6258 1.86855C20.5207 2.12318 20.4667 2.39604 20.467 2.67154C20.4686 3.22646 20.6901 3.75811 21.0829 4.1501C21.4757 4.54209 22.0078 4.76249 22.5627 4.76305H22.5733L24.8513 4.75034L21.0603 8.54134C19.3634 7.31302 17.3998 6.50372 15.3302 6.17957C13.2606 5.85542 11.1436 6.02563 9.1524 6.67629C7.16117 7.32696 5.35217 8.4396 3.87328 9.92327C2.3944 11.4069 1.2876 13.2195 0.643374 15.2129C-0.000854081 17.2062 -0.164229 19.3237 0.166604 21.3922C0.497437 23.4608 1.31309 25.4217 2.54688 27.1147C3.78067 28.8076 5.39758 30.1846 7.26544 31.133C9.1333 32.0814 11.1991 32.5744 13.2939 32.5715C13.5758 32.5715 13.8576 32.5715 14.1416 32.544C16.5099 32.3899 18.7936 31.6038 20.7549 30.2673C22.7161 28.9308 24.2832 27.0929 25.2928 24.9451C26.3025 22.7972 26.7178 20.4179 26.4956 18.055C26.2733 15.6921 25.4216 13.432 24.0291 11.5101L27.8201 7.71915L27.8095 10.0014C27.8084 10.2771 27.8616 10.5502 27.9662 10.8053C28.0707 11.0604 28.2245 11.2924 28.4187 11.488C28.613 11.6837 28.8439 11.8391 29.0982 11.9454C29.3525 12.0517 29.6254 12.1069 29.901 12.1077C30.1761 12.108 30.4486 12.0541 30.7029 11.949C30.9571 11.8439 31.1882 11.6897 31.3828 11.4953C31.5775 11.3008 31.7319 11.0699 31.8372 10.8158C31.9426 10.5616 31.9968 10.2892 31.9968 10.0141V2.65247C31.9984 2.37976 31.946 2.10944 31.8427 1.85705C31.7395 1.60466 31.5873 1.37518 31.395 1.18184ZM22.5373 19.2998C22.5373 21.1318 21.994 22.9226 20.9763 24.4458C19.9585 25.969 18.5119 27.1561 16.8194 27.8572C15.1269 28.5582 13.2646 28.7417 11.4679 28.3843C9.67112 28.0269 8.02071 27.1447 6.72533 25.8493C5.42996 24.554 4.5478 22.9036 4.19041 21.1068C3.83301 19.3101 4.01644 17.4477 4.71749 15.7552C5.41855 14.0628 6.60573 12.6162 8.12893 11.5984C9.65213 10.5806 11.4429 10.0374 13.2749 10.0374C15.7311 10.0391 18.0863 11.0154 19.8233 12.752C21.5603 14.4886 22.5372 16.8436 22.5394 19.2998H22.5373Z" fill="#015AEF"/>
</svg>
